# xmcd CD database file
# Copyright (C) 1993-1996 Ti Kan
#
# Track frame offsets:
#	150
#	9135
#	21850
#	35982
#	50262
#	61547
#	74295
#	88102
#	108415
#	125787
#	138687
#	151825
#	168865
#	185457
#	197035
#	212240
#	223790
#	240467
#	251245
#	268552
#	282302
#	294842
#	304107
#	317537
#
# Disc length: 4411 seconds
#
# Revision: 1
# Processed by: cddbd v1.4b41PL1 Copyright (c) Steve Scherf et al.
# Submitted via: CDValet v3.30 - Copyright (c) 1997 Greg Leichner
#
DISCID=5e113918
DTITLE=Various Artist - Country Western and Swing
DYEAR=1900
DGENRE=
TTITLE0=Out On A Limb (Charlie McCoy)
TTITLE1=(If It Weren't for Country Music) I'd Go Crazy (Clinton
TTITLE1=Gregory)
TTITLE2=It Wasn't God Who Made Honky Tonk Angels (Kitty Wells)
TTITLE3=There Goes My Everything (Jack Greene)
TTITLE4=Steel Guitar Rag (The Swing Shift Band)
TTITLE5=Come and Get Us Mama (Jack Robertson)
TTITLE6=Lessons of Love (Jerry Lansdowne)
TTITLE7=Dogwood Trail (Larry Sasser)
TTITLE8=Play Ruby Play (Clinton Gregory)
TTITLE9=(Turn Me Loose and) Let Me Swing (The Swing Shift Band)
TTITLE10=You're Nobody Till Somebady Loves You (Ray Price)
TTITLE11=In The Mood (The Swing Shift Band)
TTITLE12=I've Changed (Since I've Been Unchained) (Ray Penningt
TTITLE12=on)
TTITLE13=Forever (Floyd Cramer)
TTITLE14=Blue Jade (Ron Elliot)
TTITLE15=Taking My Time (Dawnett Faucett)
TTITLE16=Somewhere Over The Rainbow (The Geezinslaws)
TTITLE17=Last Date (Floyd Cramer)
TTITLE18=For The Good Times (Ray Price)
TTITLE19=Made for Loving You (Clinton Gregory)
TTITLE20=Boogie Man (Speedy West and Jimmy Bryant)
TTITLE21=Hello Walls (Faron Young)
TTITLE22=The Memories That Last (Faron Young and Ray Price)
TTITLE23=Peter Gunn (The Swing Shift Band)
EXTD=
EXTT0=
EXTT1=
EXTT2=
EXTT3=
EXTT4=
EXTT5=
EXTT6=
EXTT7=
EXTT8=
EXTT9=
EXTT10=
EXTT11=
EXTT12=
EXTT13=
EXTT14=
EXTT15=
EXTT16=
EXTT17=
EXTT18=
EXTT19=
EXTT20=
EXTT21=
EXTT22=
EXTT23=
PLAYORDER=
